<?xml version="1.0" encoding="UTF-8"?><svg xmlns="http://www.w3.org/2000/svg" xmlns:xlink="http://www.w3.org/1999/xlink" viewBox="0 0 986.5 317"><defs><style>.cls-1{fill:url(#Degradado_sin_nombre_95-14);}.cls-1,.cls-2,.cls-3,.cls-4,.cls-5,.cls-6,.cls-7,.cls-8,.cls-9,.cls-10,.cls-11,.cls-12,.cls-13,.cls-14,.cls-15,.cls-16,.cls-17,.cls-18,.cls-19,.cls-20,.cls-21{mix-blend-mode:overlay;}.cls-2{fill:url(#Degradado_sin_nombre_95-13);}.cls-3{fill:url(#Degradado_sin_nombre_95-5);}.cls-4{fill:url(#Degradado_sin_nombre_95-18);}.cls-22{fill:#033949;}.cls-5{fill:url(#Degradado_sin_nombre_95-8);}.cls-6{fill:url(#Degradado_sin_nombre_95-9);}.cls-23{isolation:isolate;}.cls-7{fill:url(#Degradado_sin_nombre_95-20);}.cls-24{fill:url(#Degradado_sin_nombre_95-3);}.cls-24,.cls-25{mix-blend-mode:hard-light;opacity:.29;}.cls-8{fill:url(#Degradado_sin_nombre_95);}.cls-25{fill:url(#Degradado_sin_nombre_95-11);}.cls-9{fill:url(#Degradado_sin_nombre_95-15);}.cls-10{fill:url(#Degradado_sin_nombre_95-22);}.cls-11{fill:url(#Degradado_sin_nombre_95-16);}.cls-12{fill:url(#Degradado_sin_nombre_95-2);}.cls-13{fill:url(#Degradado_sin_nombre_95-21);}.cls-26{fill:none;}.cls-14{fill:url(#Degradado_sin_nombre_95-4);}.cls-15{fill:url(#Degradado_sin_nombre_95-10);}.cls-16{fill:url(#Degradado_sin_nombre_95-17);}.cls-17{fill:url(#Degradado_sin_nombre_95-23);}.cls-18{fill:url(#Degradado_sin_nombre_95-12);}.cls-19{fill:url(#Degradado_sin_nombre_95-19);}.cls-27{fill:#fff;opacity:.28;}.cls-20{fill:url(#Degradado_sin_nombre_95-7);}.cls-28{fill:#ffc300;}.cls-21{fill:url(#Degradado_sin_nombre_95-6);}</style><radialGradient id="Degradado_sin_nombre_95" cx="96.99" cy="67.09" fx="96.99" fy="67.09" r="54.05" gradientTransform="translate(.74 .07) scale(.98 1)" gradientUnits="userSpaceOnUse"><stop offset="0" stop-color="#fff"/><stop offset=".03" stop-color="#fefefe" stop-opacity=".94"/><stop offset=".17" stop-color="#fbfbfc" stop-opacity=".7"/><stop offset=".31" stop-color="#f9f9fa" stop-opacity=".48"/><stop offset=".44" stop-color="#f8f8f9" stop-opacity=".31"/><stop offset=".57" stop-color="#f6f6f8" stop-opacity=".18"/><stop offset=".69" stop-color="#f5f5f7" stop-opacity=".08"/><stop offset=".8" stop-color="#f5f5f7" stop-opacity=".02"/><stop offset=".9" stop-color="#f5f5f7" stop-opacity="0"/></radialGradient><radialGradient id="Degradado_sin_nombre_95-2" cx="96.99" cy="55.43" fx="96.99" fy="55.43" r="82.31" xlink:href="#Degradado_sin_nombre_95"/><radialGradient id="Degradado_sin_nombre_95-3" cx="96.99" cy="55.43" fx="96.99" fy="55.43" r="82.31" xlink:href="#Degradado_sin_nombre_95"/><radialGradient id="Degradado_sin_nombre_95-4" cx="58.39" cy="123.78" fx="58.39" fy="123.78" r="20.57" xlink:href="#Degradado_sin_nombre_95"/><radialGradient id="Degradado_sin_nombre_95-5" cx="58.39" cy="123.78" fx="58.39" fy="123.78" r="20.57" xlink:href="#Degradado_sin_nombre_95"/><radialGradient id="Degradado_sin_nombre_95-6" cx="1022.84" cy="-2084.52" fx="1022.84" fy="-2084.52" r="9.98" gradientTransform="translate(-1751.07 2082.71) rotate(.31) scale(1.77 .99) skewX(-.38)" xlink:href="#Degradado_sin_nombre_95"/><radialGradient id="Degradado_sin_nombre_95-7" cx="1022.84" cy="-2084.52" fx="1022.84" fy="-2084.52" r="9.98" gradientTransform="translate(-1751.07 2082.71) rotate(.31) scale(1.77 .99) skewX(-.38)" xlink:href="#Degradado_sin_nombre_95"/><radialGradient id="Degradado_sin_nombre_95-8" cx="1022.84" cy="-2084.52" fx="1022.84" fy="-2084.52" r="4.86" gradientTransform="translate(-1751.07 2082.71) rotate(.31) scale(1.77 .99) skewX(-.38)" xlink:href="#Degradado_sin_nombre_95"/><radialGradient id="Degradado_sin_nombre_95-9" cx="97.38" cy="195.87" fx="97.38" fy="195.87" r="50.01" xlink:href="#Degradado_sin_nombre_95"/><radialGradient id="Degradado_sin_nombre_95-10" cx="97.38" cy="185.08" fx="97.38" fy="185.08" r="76.16" xlink:href="#Degradado_sin_nombre_95"/><radialGradient id="Degradado_sin_nombre_95-11" cx="97.38" cy="185.08" fx="97.38" fy="185.08" r="76.16" xlink:href="#Degradado_sin_nombre_95"/><radialGradient id="Degradado_sin_nombre_95-12" cx="-367.14" cy="274" fx="-367.14" fy="274" r="26.18" gradientTransform="translate(772.89 .07) scale(1.76 1)" xlink:href="#Degradado_sin_nombre_95"/><radialGradient id="Degradado_sin_nombre_95-13" cx="-367.14" cy="274" fx="-367.14" fy="274" r="26.18" gradientTransform="translate(772.89 .07) scale(1.76 1)" xlink:href="#Degradado_sin_nombre_95"/><radialGradient id="Degradado_sin_nombre_95-14" cx="-367.14" cy="274" fx="-367.14" fy="274" r="12.76" gradientTransform="translate(772.89 .07) scale(1.76 1)" xlink:href="#Degradado_sin_nombre_95"/><radialGradient id="Degradado_sin_nombre_95-15" cx="986.88" cy="-1972.12" fx="986.88" fy="-1972.12" r="9.98" gradientTransform="translate(-1685.08 2100.63) rotate(.31) scale(1.77 .99) skewX(-.38)" xlink:href="#Degradado_sin_nombre_95"/><radialGradient id="Degradado_sin_nombre_95-16" cx="986.88" cy="-1972.12" fx="986.88" fy="-1972.12" r="9.98" gradientTransform="translate(-1685.08 2100.63) rotate(.31) scale(1.77 .99) skewX(-.38)" xlink:href="#Degradado_sin_nombre_95"/><radialGradient id="Degradado_sin_nombre_95-17" cx="986.88" cy="-1972.12" fx="986.88" fy="-1972.12" r="4.86" gradientTransform="translate(-1685.08 2100.63) rotate(.31) scale(1.77 .99) skewX(-.38)" xlink:href="#Degradado_sin_nombre_95"/><radialGradient id="Degradado_sin_nombre_95-18" cx="-755.04" cy="3593.67" fx="-755.04" fy="3593.67" r="13.2" gradientTransform="translate(3724.31 1867.62) rotate(89.84) scale(2.32 .99) skewX(.3)" xlink:href="#Degradado_sin_nombre_95"/><radialGradient id="Degradado_sin_nombre_95-19" cx="-766.04" cy="3547.16" fx="-766.04" fy="3547.16" r="8.6" gradientTransform="translate(3681.41 1840.94) rotate(89.84) scale(2.32 .99) skewX(.3)" xlink:href="#Degradado_sin_nombre_95"/><radialGradient id="Degradado_sin_nombre_95-20" cx="-795.6" cy="3642.45" fx="-795.6" fy="3642.45" r="7.68" gradientTransform="translate(3668.16 1950.79) rotate(89.84) scale(2.32 .99) skewX(.3)" xlink:href="#Degradado_sin_nombre_95"/><radialGradient id="Degradado_sin_nombre_95-21" cx="-768.08" cy="3742" fx="-768.08" fy="3742" r="3.21" gradientTransform="translate(3767.68 2003.68) rotate(89.84) scale(2.32 .99) skewX(.3)" xlink:href="#Degradado_sin_nombre_95"/><radialGradient id="Degradado_sin_nombre_95-22" cx="-45.58" cy="1644.97" fx="-45.58" fy="1644.97" r="68.17" gradientTransform="translate(2379.53 430.32) rotate(90.29) scale(2.53 .92) skewX(-.69)" xlink:href="#Degradado_sin_nombre_95"/><radialGradient id="Degradado_sin_nombre_95-23" cx="11.44" cy="1430.22" fx="11.44" fy="1430.22" r="101.92" gradientTransform="translate(1732.99 237.84) rotate(90.2) scale(2.77 .92) skewX(-.52)" xlink:href="#Degradado_sin_nombre_95"/></defs><g class="cls-23"><g id="Layer_1"><g><path class="cls-26" d="M108.28,146.36c-3.96,2.32-8.84,2.32-12.81,0l-41.01-24v51.37l40.77-23.86c3.96-2.32,8.84-2.32,12.81,0l40.89,23.93v-51.22l-38.96,22.8-1.68,.98Z"/><path class="cls-22" d="M44.33,293.65c0,2.61,2.12,4.75,4.68,4.75h.94c2.57,0,4.68-2.14,4.68-4.75v-40.17l40.76,23.88c3.97,2.31,8.85,2.31,12.82,0l1.66-.99,39.2-22.95v40.23c0,2.61,2.11,4.75,4.68,4.75h.94c2.6,0,4.68-2.14,4.68-4.75l-.12-237.67c-.14-4.2-1.99-8.53-5.96-10.87l-44.86-26.25c-3.94-2.31-8.85-2.31-12.78,0l-44.86,26.25c-3.97,2.34-6.41,6.63-6.41,11.24m104.68,117.43l-40.86-23.91c-3.97-2.31-8.85-2.31-12.82,0l-40.76,23.84v-51.35l41.02,23.97c3.94,2.34,8.85,2.34,12.78,0l1.69-.96,38.94-22.82v51.21Z"/><ellipse class="cls-8" cx="96.01" cy="66.88" rx="53.09" ry="53.82"/><ellipse class="cls-12" cx="96.01" cy="55.26" rx="80.85" ry="81.96"/><ellipse class="cls-24" cx="96.01" cy="55.26" rx="80.85" ry="81.96"/><path class="cls-28" d="M143.69,114.39l-2.07,1.21-33.16,19.41-1.37,.8c-3.23,1.89-7.22,1.89-10.45,0l-36.59-21.42c-3.23-1.89-5.22-5.39-5.22-9.17V62.38c0-3.78,1.99-7.28,5.22-9.17l36.59-21.42c3.23-1.89,7.22-1.89,10.45,0l36.59,21.42c3.23,1.89,5.22,5.39,5.22,9.17v42.83c0,3.78-1.99,7.28-5.22,9.17Z"/><path class="cls-27" d="M89.66,127.6c2.24,2.04,5.85,4.67,10.57,5.13,6.06,.59,10.22-2.75,23.12-10.94,3.51-2.23,8.76-5.5,15.31-9.39,1.49-.88,3.83-2.59,5.31-5.53,.88-1.75,1.13-3.28,1.32-4.64,.96-6.9,.77-12.76,.77-12.8-.11-3.39-.23-8.5-.26-15.18-.28,3.06-.83,7.39-1.98,12.5-1.52,6.74-2.72,12.05-5.72,16.96-2.09,3.41-7.44,7.08-18.05,14.28-12.3,8.34-16.41,10.15-21.58,10.49-3.69,.24-6.76-.35-8.81-.89Z"/><ellipse class="cls-14" cx="58.09" cy="123.33" rx="20.2" ry="20.48"/><ellipse class="cls-3" cx="58.09" cy="123.33" rx="20.2" ry="20.48"/><ellipse class="cls-21" cx="96.01" cy="24.12" rx="17.67" ry="9.9" transform="translate(1.15 52.42) rotate(-30.71)"/><ellipse class="cls-20" cx="96.01" cy="24.12" rx="17.67" ry="9.9" transform="translate(1.15 52.42) rotate(-30.71)"/><ellipse class="cls-5" cx="96.01" cy="24.12" rx="8.61" ry="4.83" transform="translate(1.15 52.42) rotate(-30.71)"/><ellipse class="cls-6" cx="96.39" cy="195.11" rx="49.13" ry="49.8"/><ellipse class="cls-15" cx="96.39" cy="184.36" rx="74.81" ry="75.84"/><ellipse class="cls-25" cx="96.39" cy="184.36" rx="74.81" ry="75.84"/><path class="cls-28" d="M144.07,243.49l-2.07,1.21-33.16,19.41-1.37,.8c-3.23,1.89-7.22,1.89-10.45,0l-36.59-21.42c-3.23-1.89-5.22-5.39-5.22-9.17v-42.83c0-3.78,1.99-7.28,5.22-9.17l36.59-21.42c3.23-1.89,7.22-1.89,10.45,0l36.59,21.42c3.23,1.89,5.22,5.39,5.22,9.17v42.83c0,3.78-1.99,7.28-5.22,9.17Z"/><path class="cls-27" d="M90.04,256.7c2.24,2.04,5.85,4.67,10.57,5.13,6.06,.59,10.22-2.75,23.12-10.94,3.51-2.23,8.76-5.5,15.31-9.39,1.49-.88,3.83-2.59,5.31-5.53,.88-1.75,1.13-3.28,1.32-4.64,.96-6.9,.77-12.76,.77-12.8-.11-3.39-.23-8.5-.26-15.18-.28,3.06-.83,7.39-1.98,12.5-1.52,6.74-2.72,12.05-5.72,16.96-2.09,3.41-7.44,7.08-18.05,14.28-12.3,8.34-16.41,10.15-21.58,10.49-3.69,.24-6.76-.35-8.81-.89Z"/><ellipse class="cls-18" cx="124.93" cy="272.91" rx="46.21" ry="26.07"/><ellipse class="cls-2" cx="124.93" cy="272.91" rx="46.21" ry="26.07"/><ellipse class="cls-1" cx="124.93" cy="272.91" rx="22.52" ry="12.71"/><ellipse class="cls-9" cx="96.39" cy="153.22" rx="17.67" ry="9.9" transform="translate(-64.73 70.72) rotate(-30.71)"/><ellipse class="cls-11" cx="96.39" cy="153.22" rx="17.67" ry="9.9" transform="translate(-64.73 70.72) rotate(-30.71)"/><ellipse class="cls-16" cx="96.39" cy="153.22" rx="8.61" ry="4.83" transform="translate(-64.73 70.72) rotate(-30.71)"/><ellipse class="cls-4" cx="155.34" cy="169.69" rx="13.1" ry="30.64" transform="translate(-71.63 207.24) rotate(-56.92)"/><ellipse class="cls-19" cx="158.5" cy="116.77" rx="8.53" ry="19.95" transform="translate(-25.85 185.85) rotate(-56.92)"/><ellipse class="cls-7" cx="50.55" cy="159.47" rx="7.62" ry="17.82" transform="translate(-110.67 114.79) rotate(-56.92)"/><ellipse class="cls-13" cx="51.52" cy="277.72" rx="3.18" ry="7.45" transform="translate(-209.31 169.3) rotate(-56.92)"/></g><g><path class="cls-22" d="M304.94,269.67h-53.65c-4.61,0-8.77,2.57-10.58,6.52l-5.44,11.89c-1.81,3.96-5.97,6.52-10.58,6.52h-7.55c-8.18,0-13.75-7.75-10.65-14.83l52.36-119.29c1.77-4.04,5.98-6.67,10.65-6.67h7.63c8.18,0,13.75,7.76,10.65,14.83l-26.81,61.05c-3.11,7.07,2.46,14.83,10.65,14.83h12.8c8.19,0,13.76-7.77,10.64-14.85l-11.58-26.23c-1.89-4.29-.63-9.23,3.14-12.26l5.89-4.72c5.96-4.78,15.18-2.7,18.15,4.1l38.96,89.24c3.09,7.07-2.48,14.81-10.65,14.81h-7.52c-4.64,0-8.82-2.6-10.61-6.59l-5.28-11.76c-1.79-3.99-5.98-6.59-10.61-6.59Z"/><path class="cls-22" d="M393.55,163.81v120.8c0,5.52-4.79,9.99-10.7,9.99h-10.04c-5.91,0-10.7-4.47-10.7-9.99v-120.8c0-5.52,4.79-9.99,10.7-9.99h10.04c5.91,0,10.7,4.47,10.7,9.99Z"/><path class="cls-22" d="M566.64,212.35c-1.74,3.76-.99,8.15,2.04,11.1,2.9,2.83,5.37,6.06,7.43,9.7,3.3,5.83,4.95,12.17,4.95,19.01,0,5.9-1.18,11.4-3.55,16.49-2.37,5.1-5.6,9.59-9.69,13.48-4.09,3.89-8.9,6.94-14.43,9.15-5.53,2.21-11.38,3.32-17.55,3.32h-24.97c-4.11,0-7.89-2.12-9.82-5.51l-2.14-3.74c-3.95-6.93,1.42-15.29,9.82-15.29h27.53c2.01,0,3.91-.5,5.7-1.51,1.79-1,3.34-2.24,4.63-3.72,1.29-1.48,2.33-3.15,3.12-5.03,.79-1.88,1.18-3.75,1.18-5.63,0-2.01-.39-3.99-1.18-5.93-.79-1.94-1.91-3.65-3.34-5.13-1.44-1.47-3.05-2.68-4.84-3.62-1.8-.94-3.7-1.41-5.7-1.41h-42.91c-6.15,0-11.13,4.66-11.13,10.4v35.72c0,5.74-4.98,10.4-11.13,10.4h-7.88c-6.15,0-11.13-4.66-11.13-10.4v-120.2c0-5.74,4.98-10.4,11.13-10.4h62.29c6.17,0,12.02,1.11,17.55,3.32,5.52,2.21,10.33,5.23,14.42,9.05,4.09,3.82,7.32,8.32,9.69,13.48,2.37,5.16,3.55,10.63,3.55,16.39,0,4.29-.64,8.35-1.94,12.17-.5,1.48-1.08,2.92-1.73,4.33Zm-41.55-2.22c2.01,0,3.91-.43,5.71-1.31,1.79-.87,3.4-2.01,4.84-3.42,1.44-1.41,2.55-3.08,3.34-5.03,.79-1.94,1.19-3.99,1.19-6.13s-.4-4.19-1.19-6.13c-.79-1.94-1.9-3.65-3.34-5.13-1.44-1.48-3.05-2.65-4.84-3.52-1.8-.87-3.7-1.31-5.71-1.31h-43.28v31.98h43.28Z"/><path class="cls-22" d="M705.51,282.54c0,8.85-4.3,14.68-14.21,14.68s-14.21-5.83-14.21-14.68v-3.82h-.43c-8.83,10.86-20.23,18.5-38.11,18.5-18.95,0-39.61-8.85-39.61-38.61v-57.12c0-7.84,3.44-14.68,15.72-14.68s15.72,6.84,15.72,14.68v51.28c0,11.86,6.25,20.31,19.81,20.31,10.98,0,23.9-8.45,23.9-23.13v-48.47c0-7.84,3.44-14.68,15.72-14.68s15.72,6.84,15.72,14.68v81.05Z"/><path class="cls-22" d="M787.76,212.35h-45.43c-5.81,0-12.7-3.02-12.7-11.46s6.89-11.46,12.7-11.46h74.7c8.4,0,12.92,5.23,12.92,12.87,0,3.22-1.94,6.84-4.95,9.85l-58.13,59.53h51.67c5.82,0,12.7,3.02,12.7,11.46s-6.89,11.46-12.7,11.46h-80.09c-9.26,0-13.99-5.63-13.99-11.46,0-4.22,1.29-7.84,4.09-10.66l59.21-60.13Z"/><path class="cls-22" d="M907.46,212.35h-45.42c-5.81,0-12.7-3.02-12.7-11.46s6.89-11.46,12.7-11.46h74.71c8.39,0,12.92,5.23,12.92,12.87,0,3.22-1.94,6.84-4.95,9.85l-58.13,59.53h51.67c5.82,0,12.7,3.02,12.7,11.46s-6.89,11.46-12.7,11.46h-80.09c-9.26,0-13.99-5.63-13.99-11.46,0-4.22,1.29-7.84,4.09-10.66l59.2-60.13Z"/><ellipse class="cls-10" cx="869.32" cy="257.11" rx="62.61" ry="172.72" transform="translate(418.33 1043.52) rotate(-76.64)"/><ellipse class="cls-17" cx="420.95" cy="228.81" rx="93.49" ry="282.02" transform="translate(116.17 598.48) rotate(-79.02)"/></g></g></g></svg>