<?xml version="1.0" encoding="UTF-8"?><svg xmlns="http://www.w3.org/2000/svg" xmlns:xlink="http://www.w3.org/1999/xlink" viewBox="0 0 689 240"><defs><style>.cls-1{fill:url(#Degradado_sin_nombre_95-14);}.cls-1,.cls-2,.cls-3,.cls-4,.cls-5,.cls-6,.cls-7,.cls-8,.cls-9,.cls-10,.cls-11,.cls-12,.cls-13,.cls-14,.cls-15,.cls-16,.cls-17,.cls-18,.cls-19,.cls-20,.cls-21{mix-blend-mode:overlay;}.cls-2{fill:url(#Degradado_sin_nombre_95-13);}.cls-3{fill:url(#Degradado_sin_nombre_95-5);}.cls-4{fill:url(#Degradado_sin_nombre_95-18);}.cls-22{fill:#033949;}.cls-5{fill:url(#Degradado_sin_nombre_95-8);}.cls-6{fill:url(#Degradado_sin_nombre_95-9);}.cls-23{isolation:isolate;}.cls-7{fill:url(#Degradado_sin_nombre_95-20);}.cls-24{fill:url(#Degradado_sin_nombre_95-3);}.cls-24,.cls-25{mix-blend-mode:hard-light;opacity:.29;}.cls-8{fill:url(#Degradado_sin_nombre_95);}.cls-25{fill:url(#Degradado_sin_nombre_95-11);}.cls-9{fill:url(#Degradado_sin_nombre_95-15);}.cls-10{fill:url(#Degradado_sin_nombre_95-22);}.cls-11{fill:url(#Degradado_sin_nombre_95-16);}.cls-12{fill:url(#Degradado_sin_nombre_95-2);}.cls-13{fill:url(#Degradado_sin_nombre_95-21);}.cls-26{fill:none;}.cls-14{fill:url(#Degradado_sin_nombre_95-4);}.cls-15{fill:url(#Degradado_sin_nombre_95-10);}.cls-16{fill:url(#Degradado_sin_nombre_95-17);}.cls-17{fill:url(#Degradado_sin_nombre_95-23);}.cls-18{fill:url(#Degradado_sin_nombre_95-12);}.cls-19{fill:url(#Degradado_sin_nombre_95-19);}.cls-27{fill:#fff;opacity:.28;}.cls-20{fill:url(#Degradado_sin_nombre_95-7);}.cls-28{fill:#ffc300;}.cls-21{fill:url(#Degradado_sin_nombre_95-6);}</style><radialGradient id="Degradado_sin_nombre_95" cx="314.75" cy="55.3" fx="314.75" fy="55.3" r="39.21" gradientTransform="translate(-2.73 -2.43) scale(.98 1)" gradientUnits="userSpaceOnUse"><stop offset="0" stop-color="#fff"/><stop offset=".03" stop-color="#fefefe" stop-opacity=".94"/><stop offset=".17" stop-color="#fbfbfc" stop-opacity=".7"/><stop offset=".31" stop-color="#f9f9fa" stop-opacity=".48"/><stop offset=".44" stop-color="#f8f8f9" stop-opacity=".31"/><stop offset=".57" stop-color="#f6f6f8" stop-opacity=".18"/><stop offset=".69" stop-color="#f5f5f7" stop-opacity=".08"/><stop offset=".8" stop-color="#f5f5f7" stop-opacity=".02"/><stop offset=".9" stop-color="#f5f5f7" stop-opacity="0"/></radialGradient><radialGradient id="Degradado_sin_nombre_95-2" cx="314.75" cy="46.84" fx="314.75" fy="46.84" r="59.71" xlink:href="#Degradado_sin_nombre_95"/><radialGradient id="Degradado_sin_nombre_95-3" cx="314.75" cy="46.84" fx="314.75" fy="46.84" r="59.71" xlink:href="#Degradado_sin_nombre_95"/><radialGradient id="Degradado_sin_nombre_95-4" cx="286.74" cy="96.42" fx="286.74" fy="96.42" r="14.92" xlink:href="#Degradado_sin_nombre_95"/><radialGradient id="Degradado_sin_nombre_95-5" cx="286.74" cy="96.42" fx="286.74" fy="96.42" r="14.92" xlink:href="#Degradado_sin_nombre_95"/><radialGradient id="Degradado_sin_nombre_95-6" cx="860.82" cy="-1957.03" fx="860.82" fy="-1957.03" r="7.24" gradientTransform="translate(-1251.52 1955.25) rotate(.31) scale(1.77 .99) skewX(-.38)" xlink:href="#Degradado_sin_nombre_95"/><radialGradient id="Degradado_sin_nombre_95-7" cx="860.82" cy="-1957.03" fx="860.82" fy="-1957.03" r="7.24" gradientTransform="translate(-1251.52 1955.25) rotate(.31) scale(1.77 .99) skewX(-.38)" xlink:href="#Degradado_sin_nombre_95"/><radialGradient id="Degradado_sin_nombre_95-8" cx="860.82" cy="-1957.03" fx="860.82" fy="-1957.03" r="3.53" gradientTransform="translate(-1251.52 1955.25) rotate(.31) scale(1.77 .99) skewX(-.38)" xlink:href="#Degradado_sin_nombre_95"/><radialGradient id="Degradado_sin_nombre_95-9" cx="315.03" cy="148.71" fx="315.03" fy="148.71" r="36.28" xlink:href="#Degradado_sin_nombre_95"/><radialGradient id="Degradado_sin_nombre_95-10" cx="315.03" cy="140.88" fx="315.03" fy="140.88" r="55.25" xlink:href="#Degradado_sin_nombre_95"/><radialGradient id="Degradado_sin_nombre_95-11" cx="315.03" cy="140.88" fx="315.03" fy="140.88" r="55.25" xlink:href="#Degradado_sin_nombre_95"/><radialGradient id="Degradado_sin_nombre_95-12" cx="-337.35" cy="205.39" fx="-337.35" fy="205.39" r="18.99" gradientTransform="translate(922.81 -2.43) scale(1.76 1)" xlink:href="#Degradado_sin_nombre_95"/><radialGradient id="Degradado_sin_nombre_95-13" cx="-337.35" cy="205.39" fx="-337.35" fy="205.39" r="18.99" gradientTransform="translate(922.81 -2.43) scale(1.76 1)" xlink:href="#Degradado_sin_nombre_95"/><radialGradient id="Degradado_sin_nombre_95-14" cx="-337.35" cy="205.39" fx="-337.35" fy="205.39" r="9.26" gradientTransform="translate(922.81 -2.43) scale(1.76 1)" xlink:href="#Degradado_sin_nombre_95"/><radialGradient id="Degradado_sin_nombre_95-15" cx="834.73" cy="-1875.49" fx="834.73" fy="-1875.49" r="7.24" gradientTransform="translate(-1203.65 1968.25) rotate(.31) scale(1.77 .99) skewX(-.38)" xlink:href="#Degradado_sin_nombre_95"/><radialGradient id="Degradado_sin_nombre_95-16" cx="834.73" cy="-1875.49" fx="834.73" fy="-1875.49" r="7.24" gradientTransform="translate(-1203.65 1968.25) rotate(.31) scale(1.77 .99) skewX(-.38)" xlink:href="#Degradado_sin_nombre_95"/><radialGradient id="Degradado_sin_nombre_95-17" cx="834.73" cy="-1875.49" fx="834.73" fy="-1875.49" r="3.53" gradientTransform="translate(-1203.65 1968.25) rotate(.31) scale(1.77 .99) skewX(-.38)" xlink:href="#Degradado_sin_nombre_95"/><radialGradient id="Degradado_sin_nombre_95-18" cx="-682.28" cy="3252.82" fx="-682.28" fy="3252.82" r="9.58" gradientTransform="translate(3579.94 1661.44) rotate(89.84) scale(2.32 .99) skewX(.3)" xlink:href="#Degradado_sin_nombre_95"/><radialGradient id="Degradado_sin_nombre_95-19" cx="-690.26" cy="3219.08" fx="-690.26" fy="3219.08" r="6.24" gradientTransform="translate(3548.81 1642.08) rotate(89.84) scale(2.32 .99) skewX(.3)" xlink:href="#Degradado_sin_nombre_95"/><radialGradient id="Degradado_sin_nombre_95-20" cx="-711.7" cy="3288.21" fx="-711.7" fy="3288.21" r="5.57" gradientTransform="translate(3539.2 1721.77) rotate(89.84) scale(2.32 .99) skewX(.3)" xlink:href="#Degradado_sin_nombre_95"/><radialGradient id="Degradado_sin_nombre_95-21" cx="-691.74" cy="3360.42" fx="-691.74" fy="3360.42" r="2.33" gradientTransform="translate(3611.39 1760.14) rotate(89.84) scale(2.32 .99) skewX(.3)" xlink:href="#Degradado_sin_nombre_95"/><radialGradient id="Degradado_sin_nombre_95-22" cx="-209.26" cy="1633.24" fx="-209.26" fy="1633.24" r="60.03" gradientTransform="translate(1986.57 788.61) rotate(90.43) scale(2.46 .86) skewX(-1.09)" xlink:href="#Degradado_sin_nombre_95"/><radialGradient id="Degradado_sin_nombre_95-23" cx="-145.23" cy="1414.04" fx="-145.23" fy="1414.04" r="89.75" gradientTransform="translate(1414.75 615.53) rotate(90.29) scale(2.68 .86) skewX(-.82)" xlink:href="#Degradado_sin_nombre_95"/></defs><g class="cls-23"><g id="Layer_1"><g><path class="cls-26" d="M315.34,110.29c-2.87,1.68-6.42,1.68-9.29,0l-29.75-17.41v37.27l29.57-17.31c2.87-1.68,6.42-1.68,9.29,0l29.66,17.36v-37.16l-28.26,16.54-1.22,.71Z"/><path class="cls-22" d="M268.95,217.13c0,1.89,1.53,3.44,3.4,3.44h.68c1.86,0,3.4-1.55,3.4-3.44v-29.14l29.57,17.32c2.88,1.67,6.42,1.67,9.3,0l1.2-.72,28.43-16.65v29.18c0,1.89,1.53,3.44,3.4,3.44h.68c1.89,0,3.4-1.55,3.4-3.44l-.09-172.41c-.1-3.05-1.45-6.19-4.33-7.89l-32.54-19.04c-2.86-1.67-6.42-1.67-9.27,0l-32.54,19.04c-2.88,1.7-4.65,4.81-4.65,8.16m75.94,85.19l-29.64-17.34c-2.88-1.67-6.42-1.67-9.3,0l-29.57,17.3v-37.25l29.76,17.39c2.86,1.7,6.42,1.7,9.27,0l1.23-.69,28.25-16.55v37.15Z"/><ellipse class="cls-8" cx="306.44" cy="52.63" rx="38.51" ry="39.04"/><ellipse class="cls-12" cx="306.44" cy="44.21" rx="58.65" ry="59.46"/><ellipse class="cls-24" cx="306.44" cy="44.21" rx="58.65" ry="59.46"/><path class="cls-28" d="M341.03,87.1l-1.5,.88-24.05,14.08-.99,.58c-2.35,1.37-5.23,1.37-7.58,0l-26.54-15.54c-2.35-1.37-3.79-3.91-3.79-6.65v-31.07c0-2.75,1.44-5.28,3.79-6.65l26.54-15.54c2.35-1.37,5.23-1.37,7.58,0l26.54,15.54c2.35,1.37,3.79,3.91,3.79,6.65v31.07c0,2.75-1.44,5.28-3.79,6.65Z"/><path class="cls-27" d="M301.83,96.68c1.62,1.48,4.25,3.39,7.67,3.72,4.4,.43,7.41-2,16.77-7.93,2.55-1.61,6.35-3.99,11.11-6.81,1.08-.64,2.78-1.88,3.85-4.01,.64-1.27,.82-2.38,.96-3.36,.7-5.01,.56-9.25,.56-9.29-.08-2.46-.17-6.16-.19-11.01-.2,2.22-.6,5.36-1.44,9.07-1.1,4.89-1.97,8.74-4.15,12.3-1.51,2.48-5.4,5.14-13.1,10.36-8.92,6.05-11.9,7.37-15.65,7.61-2.68,.17-4.91-.25-6.39-.65Z"/><ellipse class="cls-14" cx="278.93" cy="93.58" rx="14.65" ry="14.86"/><ellipse class="cls-3" cx="278.93" cy="93.58" rx="14.65" ry="14.86"/><ellipse class="cls-21" cx="306.44" cy="21.61" rx="12.82" ry="7.18" transform="translate(31.94 159.54) rotate(-30.71)"/><ellipse class="cls-20" cx="306.44" cy="21.61" rx="12.82" ry="7.18" transform="translate(31.94 159.54) rotate(-30.71)"/><ellipse class="cls-5" cx="306.44" cy="21.61" rx="6.25" ry="3.5" transform="translate(31.94 159.54) rotate(-30.71)"/><ellipse class="cls-6" cx="306.71" cy="145.65" rx="35.64" ry="36.13"/><ellipse class="cls-15" cx="306.71" cy="137.85" rx="54.27" ry="55.01"/><ellipse class="cls-25" cx="306.71" cy="137.85" rx="54.27" ry="55.01"/><path class="cls-28" d="M341.3,180.75l-1.5,.88-24.05,14.08-.99,.58c-2.35,1.37-5.23,1.37-7.58,0l-26.54-15.54c-2.35-1.37-3.79-3.91-3.79-6.65v-31.07c0-2.75,1.44-5.28,3.79-6.65l26.54-15.54c2.35-1.37,5.23-1.37,7.58,0l26.54,15.54c2.35,1.37,3.79,3.91,3.79,6.65v31.07c0,2.75-1.44,5.28-3.79,6.65Z"/><path class="cls-27" d="M302.11,190.33c1.62,1.48,4.25,3.39,7.67,3.72,4.4,.43,7.41-2,16.77-7.93,2.55-1.61,6.35-3.99,11.11-6.81,1.08-.64,2.78-1.88,3.85-4.01,.64-1.27,.82-2.38,.96-3.36,.7-5.01,.56-9.25,.56-9.29-.08-2.46-.17-6.16-.19-11.01-.2,2.22-.6,5.36-1.44,9.07-1.1,4.89-1.97,8.74-4.15,12.3-1.51,2.48-5.4,5.14-13.1,10.36-8.92,6.05-11.9,7.37-15.65,7.61-2.68,.17-4.91-.25-6.39-.65Z"/><ellipse class="cls-18" cx="327.42" cy="202.09" rx="33.52" ry="18.91"/><ellipse class="cls-2" cx="327.42" cy="202.09" rx="33.52" ry="18.91"/><ellipse class="cls-1" cx="327.42" cy="202.09" rx="16.34" ry="9.22"/><ellipse class="cls-9" cx="306.71" cy="115.26" rx="12.82" ry="7.18" transform="translate(-15.85 172.81) rotate(-30.71)"/><ellipse class="cls-11" cx="306.71" cy="115.26" rx="12.82" ry="7.18" transform="translate(-15.85 172.81) rotate(-30.71)"/><ellipse class="cls-16" cx="306.71" cy="115.26" rx="6.25" ry="3.5" transform="translate(-15.85 172.81) rotate(-30.71)"/><ellipse class="cls-4" cx="349.48" cy="127.21" rx="9.5" ry="22.23" transform="translate(52.14 350.61) rotate(-56.92)"/><ellipse class="cls-19" cx="351.77" cy="88.83" rx="6.18" ry="14.47" transform="translate(85.35 335.1) rotate(-56.92)"/><ellipse class="cls-7" cx="273.46" cy="119.8" rx="5.53" ry="12.93" transform="translate(23.82 283.55) rotate(-56.92)"/><ellipse class="cls-13" cx="274.16" cy="205.58" rx="2.31" ry="5.4" transform="translate(-47.73 323.1) rotate(-56.92)"/></g><g><path class="cls-22" d="M103.82,198.32H57.91c-3.94,0-7.5,2.1-9.05,5.35l-4.66,9.75c-1.55,3.24-5.11,5.35-9.05,5.35h-6.46c-7,0-11.77-6.35-9.11-12.15l44.81-97.76c1.52-3.31,5.12-5.47,9.11-5.47h6.53c7,0,11.77,6.36,9.11,12.15l-22.94,50.03c-2.66,5.8,2.11,12.15,9.11,12.15h10.95c7.01,0,11.78-6.37,9.1-12.17l-9.91-21.5c-1.62-3.52-.54-7.57,2.69-10.04l5.04-3.87c5.1-3.92,12.99-2.21,15.53,3.36l33.34,73.13c2.64,5.79-2.12,12.14-9.12,12.14h-6.44c-3.97,0-7.55-2.13-9.08-5.4l-4.52-9.63c-1.53-3.27-5.11-5.4-9.08-5.4Z"/><path class="cls-22" d="M179.65,111.57v99c0,4.52-4.1,8.19-9.15,8.19h-8.59c-5.06,0-9.15-3.67-9.15-8.19V111.57c0-4.52,4.1-8.19,9.15-8.19h8.59c5.06,0,9.15,3.67,9.15,8.19Z"/><path class="cls-22" d="M462.47,208.87c0,7.25-3.68,12.03-12.16,12.03s-12.16-4.78-12.16-12.03v-3.13h-.37c-7.55,8.9-17.32,15.16-32.61,15.16-16.21,0-33.9-7.25-33.9-31.64v-46.81c0-6.43,2.95-12.03,13.45-12.03s13.45,5.6,13.45,12.03v42.03c0,9.72,5.34,16.65,16.95,16.65,9.39,0,20.45-6.92,20.45-18.96v-39.72c0-6.43,2.95-12.03,13.45-12.03s13.45,5.6,13.45,12.03v66.42Z"/><path class="cls-22" d="M532.86,151.35h-38.88c-4.97,0-10.87-2.47-10.87-9.39s5.9-9.39,10.87-9.39h63.93c7.19,0,11.06,4.28,11.06,10.55,0,2.64-1.66,5.6-4.24,8.08l-49.74,48.79h44.22c4.98,0,10.87,2.47,10.87,9.39s-5.9,9.39-10.87,9.39h-68.53c-7.92,0-11.97-4.61-11.97-9.39,0-3.46,1.11-6.43,3.5-8.74l50.67-49.28Z"/><path class="cls-22" d="M635.29,151.35h-38.87c-4.97,0-10.87-2.47-10.87-9.39s5.9-9.39,10.87-9.39h63.93c7.18,0,11.05,4.28,11.05,10.55,0,2.64-1.66,5.6-4.24,8.08l-49.74,48.79h44.22c4.98,0,10.87,2.47,10.87,9.39s-5.9,9.39-10.87,9.39h-68.53c-7.92,0-11.97-4.61-11.97-9.39,0-3.46,1.1-6.43,3.5-8.74l50.66-49.28Z"/><ellipse class="cls-10" cx="591.65" cy="188.03" rx="51.42" ry="147.48" transform="translate(278.56 724.11) rotate(-77.34)"/><ellipse class="cls-17" cx="207.95" cy="164.84" rx="76.73" ry="240.98" transform="translate(8.22 339.55) rotate(-79.58)"/></g></g></g></svg>